<?xml version="1.0" encoding="utf-8"?>
<svg xmlns="http://www.w3.org/2000/svg" style="margin: auto; background: rgba(221, 221, 221, 0) none repeat scroll 0% 0%; display: block; shape-rendering: auto;" width="280" height="83" preserveAspectRatio="xMidYMid">
<style type="text/css">
  text {
    text-anchor: middle; font-size: 69px; opacity: 0;
  }
</style>
<g style="transform-origin:140px 41.5px;transform:scale(1)">
<g transform="translate(140,41.5)">
  <g transform="translate(0,0)"><g class="path" style="transform: scale(0.91); transform-origin: -104.562px -0.042408px 0px; animation: 1s linear -0.5775s infinite normal forwards running breath-046f8bd4-f257-4c99-93c6-2d39666f5c76;"><path d="M14.49-9.38L14.49-9.38L14.49-9.38Q14.49 0.97 21.18 4.28L21.18 4.28L21.18 4.28Q22.84 4.49 25.56 4.49L25.56 4.49L25.56 4.49Q28.29 4.49 31.33 3.45L31.33 3.45L31.33 3.45Q34.36 2.42 36.02 0.90L36.02 0.90L36.02 0.90Q39.54-2.35 40.43-4.69L40.43-4.69L40.78-5.73L42.16-5.18L42.16-5.18Q41.68-3.59 40.30-1.52L40.30-1.52L40.30-1.52Q38.92 0.55 37.16 2.00L37.16 2.00L37.16 2.00Q35.40 3.45 32.05 4.66L32.05 4.66L32.05 4.66Q28.70 5.87 24.63 5.87L24.63 5.87L24.63 5.87Q15.94 5.87 11.14 0.83L11.14 0.83L11.14 0.83Q6.35-4.21 6.35-13.39L6.35-13.39L6.35-13.39Q6.35-25.88 14.42-33.95L14.42-33.95L14.42-33.95Q22.49-42.02 35.60-42.02L35.60-42.02L35.60-42.02Q41.68-42.02 44.37-39.85L44.37-39.85L44.37-39.85Q47.06-37.67 47.06-33.05L47.06-33.05L47.06-33.05Q47.06-29.95 44.02-25.39L44.02-25.39L44.02-25.39Q41.26-20.98 41.26-18.49L41.26-18.49L39.74-18.49L39.74-18.49Q39.74-19.87 40.30-21.46L40.30-21.46L40.30-21.46Q40.85-23.05 41.26-23.74L41.26-23.74L41.26-23.74Q41.68-24.43 42.78-26.22L42.78-26.22L42.78-26.22Q45.47-30.29 45.47-32.91L45.47-32.91L45.47-32.91Q45.47-38.43 40.92-39.88L40.92-39.88L40.92-39.88Q38.78-40.57 36.43-40.57L36.43-40.57L36.43-40.57Q34.09-40.57 31.46-40.30L31.46-40.30L31.46-40.30Q29.05-39.54 26.88-38.33L26.88-38.33L26.88-38.33Q24.70-37.12 22.36-34.67L22.36-34.67L22.36-34.67Q20.01-32.22 18.35-28.98L18.35-28.98L18.35-28.98Q16.70-25.74 15.59-20.67L15.59-20.67L15.59-20.67Q14.49-15.59 14.49-9.38" fill="#ffffff" stroke="none" stroke-width="none" transform="translate(-131.2666778564453,18.032593383789063)" style="fill: rgb(255, 255, 255);"></path></g><g class="path" style="transform: scale(0.91); transform-origin: -67.8517px 4.92259px 0px; animation: 1s linear -0.495s infinite normal forwards running breath-046f8bd4-f257-4c99-93c6-2d39666f5c76;"><path d="M72.86 0.62L72.86 0.62L72.86 0.62Q66.79 0.62 66.24-4.69L66.24-4.69L66.24-4.69Q63.20 0.62 58.58 0.62L58.58 0.62L58.58 0.62Q53.96 0.62 51.23-2.17L51.23-2.17L51.23-2.17Q48.51-4.97 48.51-10.01L48.51-10.01L48.51-10.01Q48.51-17.87 52.37-22.36L52.37-22.36L52.37-22.36Q56.24-26.84 62.38-26.84L62.38-26.84L62.38-26.84Q67.41-26.84 69.07-22.08L69.07-22.08L69.07-22.08Q69.41-24.15 69.83-26.22L69.83-26.22L69.83-26.22Q74.93-26.22 77.42-26.63L77.42-26.63L78.32-26.84L73.55-0.76L73.55-0.76Q75.62-0.97 77.00-2.69L77.00-2.69L78.04-1.86L78.04-1.86Q75.97 0.62 72.86 0.62zM56.30-6.49L56.30-6.49Q56.30-3.38 57.10-2.17L57.10-2.17L57.10-2.17Q57.89-0.97 59.55-0.97L59.55-0.97L59.55-0.97Q61.20-0.97 62.93-2.76L62.93-2.76L62.93-2.76Q65.21-5.11 66.59-8.69L66.59-8.69L66.59-8.69Q66.79-9.59 67.38-13.01L67.38-13.01L67.38-13.01Q67.97-16.42 68.38-18.63L68.38-18.63L68.38-18.63Q68.17-21.25 66.93-23.18L66.93-23.18L66.93-23.18Q65.69-25.12 63.83-25.12L63.83-25.12L63.83-25.12Q60.44-25.12 58.37-19.08L58.37-19.08L58.37-19.08Q56.30-13.04 56.30-6.49L56.30-6.49" fill="#ffffff" stroke="none" stroke-width="none" transform="translate(-131.2666778564453,18.032593383789063)" style="fill: rgb(255, 255, 255);"></path></g><g class="path" style="transform: scale(0.91); transform-origin: -36.3917px 4.61259px 0px; animation: 1s linear -0.4125s infinite normal forwards running breath-046f8bd4-f257-4c99-93c6-2d39666f5c76;"><path d="M83.35-23.53L82.32-24.36L82.32-24.36Q84.39-26.84 87.53-26.84L87.53-26.84L87.53-26.84Q90.67-26.84 92.39-25.25L92.39-25.25L92.39-25.25Q94.12-23.67 94.12-20.77L94.12-20.77L94.12-20.36L94.12-20.36Q97.22-26.84 102.19-26.84L102.19-26.84L102.19-26.84Q107.50-26.84 107.50-21.32L107.50-21.32L107.50-21.32Q107.50-19.04 105.98-16.49L105.98-16.49L105.98-16.49Q104.47-13.94 102.95-11.63L102.95-11.63L102.95-11.63Q101.43-9.32 101.43-7.52L101.43-7.52L99.77-7.52L99.77-7.52Q99.77-10.07 102.74-14.42L102.74-14.42L102.74-14.42Q105.71-18.77 105.71-21.15L105.71-21.15L105.71-21.15Q105.71-23.53 104.78-24.39L104.78-24.39L104.78-24.39Q103.85-25.25 102.02-25.25L102.02-25.25L102.02-25.25Q100.19-25.25 98.43-23.67L98.43-23.67L98.43-23.67Q96.67-22.08 95.50-19.67L95.50-19.67L95.50-19.67Q93.63-16.08 93.01-13.80L93.01-13.80L93.01-13.73L90.53 0L82.25 0L86.80-25.46L86.80-25.46Q84.73-25.25 83.35-23.53L83.35-23.53" fill="#ffffff" stroke="none" stroke-width="none" transform="translate(-131.2666778564453,18.032593383789063)" style="fill: rgb(255, 255, 255);"></path></g><g class="path" style="transform: scale(0.91); transform-origin: -8.37668px 10.9626px 0px; animation: 1s linear -0.33s infinite normal forwards running breath-046f8bd4-f257-4c99-93c6-2d39666f5c76;"><path d="M131.65 7.52L131.65 7.52L131.65 7.52Q134.14 7.52 135.93 5.59L135.93 5.59L136.90 6.42L136.90 6.42Q135.24 8.76 131.65 8.76L131.65 8.76L131.65 8.76Q130.13 8.76 128.55 8.42L128.55 8.42L128.55 8.42Q123.86 12.70 116.54 12.70L116.54 12.70L116.54 12.70Q112.19 12.70 109.81 11.21L109.81 11.21L109.81 11.21Q107.43 9.73 107.43 7.35L107.43 7.35L107.43 7.35Q107.43 4.97 108.92 3.55L108.92 3.55L108.92 3.55Q110.40 2.14 114.20 2.14L114.20 2.14L114.20 2.14Q117.99 2.14 124.20 5.24L124.20 5.24L126.34-6.21L126.34-6.21Q123.23-0.48 118.34-0.48L118.34-0.48L118.34-0.48Q108.95-0.48 108.95-9.73L108.95-9.73L108.95-9.73Q108.95-17.46 112.85-22.15L112.85-22.15L112.85-22.15Q116.75-26.84 122.82-26.84L122.82-26.84L122.82-26.84Q126.34-26.84 128.27-24.70L128.27-24.70L128.27-24.70Q128.82-24.08 129.38-22.84L129.38-22.84L130.00-26.22L130.00-26.22Q135.10-26.22 137.45-26.63L137.45-26.63L138.35-26.84L133.79-1.38L133.79-1.38Q132.76 4.00 129.65 7.31L129.65 7.31L129.65 7.31Q130.55 7.52 131.65 7.52zM116.75-7.59L116.75-7.59Q116.75-4.42 117.37-3.35L117.37-3.35L117.37-3.35Q117.99-2.28 119.72-2.28L119.72-2.28L119.72-2.28Q121.44-2.28 123.23-4.14L123.23-4.14L123.23-4.14Q125.03-6.00 125.82-7.62L125.82-7.62L125.82-7.62Q126.62-9.25 127.17-10.76L127.17-10.76L128.62-18.70L128.62-19.18L128.62-19.18Q128.62-25.53 122.82-25.53L122.82-25.53L122.82-25.53Q120.61-25.53 118.68-19.53L118.68-19.53L118.68-19.53Q116.75-13.52 116.75-7.59L116.75-7.59zM116.27 11.32L116.27 11.32L116.27 11.32Q121.79 11.32 123.72 6.56L123.72 6.56L122.75 6.07L122.75 6.07Q121.92 5.66 121.75 5.55L121.75 5.55L121.75 5.55Q121.58 5.45 120.82 5.11L120.82 5.11L120.82 5.11Q120.06 4.76 119.72 4.66L119.72 4.66L119.72 4.66Q119.37 4.55 118.65 4.28L118.65 4.28L118.65 4.28Q117.92 4.00 117.44 3.90L117.44 3.90L117.44 3.90Q116.96 3.80 116.33 3.66L116.33 3.66L116.33 3.66Q115.30 3.45 113.30 3.45L113.30 3.45L113.30 3.45Q111.30 3.45 110.09 4.42L110.09 4.42L110.09 4.42Q108.88 5.38 108.88 7.25L108.88 7.25L108.88 7.25Q108.88 9.11 110.88 10.21L110.88 10.21L110.88 10.21Q112.88 11.32 116.27 11.32" fill="#ffffff" stroke="none" stroke-width="none" transform="translate(-131.2666778564453,18.032593383789063)" style="fill: rgb(255, 255, 255);"></path></g><g class="path" style="transform: scale(0.91); transform-origin: 24.6733px 4.92259px 0px; animation: 1s linear -0.2475s infinite normal forwards running breath-046f8bd4-f257-4c99-93c6-2d39666f5c76;"><path d="M165.39 0.62L165.39 0.62L165.39 0.62Q159.32 0.62 158.77-4.69L158.77-4.69L158.77-4.69Q155.73 0.62 151.11 0.62L151.11 0.62L151.11 0.62Q146.49 0.62 143.76-2.17L143.76-2.17L143.76-2.17Q141.04-4.97 141.04-10.01L141.04-10.01L141.04-10.01Q141.04-17.87 144.90-22.36L144.90-22.36L144.90-22.36Q148.76-26.84 154.91-26.84L154.91-26.84L154.91-26.84Q159.94-26.84 161.60-22.08L161.60-22.08L161.60-22.08Q161.94-24.15 162.36-26.22L162.36-26.22L162.36-26.22Q167.46-26.22 169.95-26.63L169.95-26.63L170.84-26.84L166.08-0.76L166.08-0.76Q168.15-0.97 169.53-2.69L169.53-2.69L170.57-1.86L170.57-1.86Q168.50 0.62 165.39 0.62zM148.83-6.49L148.83-6.49Q148.83-3.38 149.63-2.17L149.63-2.17L149.63-2.17Q150.42-0.97 152.08-0.97L152.08-0.97L152.08-0.97Q153.73-0.97 155.46-2.76L155.46-2.76L155.46-2.76Q157.73-5.11 159.11-8.69L159.11-8.69L159.11-8.69Q159.32-9.59 159.91-13.01L159.91-13.01L159.91-13.01Q160.49-16.42 160.91-18.63L160.91-18.63L160.91-18.63Q160.70-21.25 159.46-23.18L159.46-23.18L159.46-23.18Q158.22-25.12 156.35-25.12L156.35-25.12L156.35-25.12Q152.97-25.12 150.90-19.08L150.90-19.08L150.90-19.08Q148.83-13.04 148.83-6.49L148.83-6.49" fill="#ffffff" stroke="none" stroke-width="none" transform="translate(-131.2666778564453,18.032593383789063)" style="fill: rgb(255, 255, 255);"></path></g><g class="path" style="transform: scale(0.91); transform-origin: 58.8633px 4.92259px 0px; animation: 1s linear -0.165s infinite normal forwards running breath-046f8bd4-f257-4c99-93c6-2d39666f5c76;"><path d="M201.13-0.76L201.13-0.76L201.13-0.76Q202.79-0.76 204.58-2.69L204.58-2.69L205.62-1.86L205.62-1.86Q205.14-0.90 203.48-0.14L203.48-0.14L203.48-0.14Q201.82 0.62 199.82 0.62L199.82 0.62L199.82 0.62Q193.54 0.62 193.54-5.04L193.54-5.04L193.54-5.04Q193.54-7.45 194.79-13.66L194.79-13.66L194.79-13.66Q196.03-19.87 196.03-21.80L196.03-21.80L196.03-21.80Q196.03-24.77 193.20-24.77L193.20-24.77L193.20-24.77Q190.92-24.77 188.82-21.80L188.82-21.80L188.82-21.80Q186.71-18.84 185.33-13.66L185.33-13.66L182.99-0.76L182.99-0.76Q185.13-0.97 186.51-2.69L186.51-2.69L187.54-1.86L187.54-1.86Q185.47 0.62 182.37 0.62L182.37 0.62L182.37 0.62Q179.26 0.62 177.50-0.97L177.50-0.97L177.50-0.97Q175.74-2.55 175.74-5.11L175.74-5.11L175.74-5.11Q175.74-6.07 176.85-12.70L176.85-12.70L179.12-25.46L179.12-25.46Q177.05-25.25 175.67-23.53L175.67-23.53L174.64-24.36L174.64-24.36Q176.71-26.84 179.85-26.84L179.85-26.84L179.85-26.84Q182.99-26.84 184.71-25.25L184.71-25.25L184.71-25.25Q186.44-23.67 186.44-20.77L186.44-20.77L186.44-20.36L186.44-20.36Q189.27-26.84 195.27-26.84L195.27-26.84L195.27-26.84Q199.34-26.84 201.62-24.53L201.62-24.53L201.62-24.53Q203.89-22.22 203.89-18.15L203.89-18.15L203.89-18.15Q203.89-16.01 202.58-9.90L202.58-9.90L202.58-9.90Q201.27-3.80 201.13-0.76" fill="#ffffff" stroke="none" stroke-width="none" transform="translate(-131.2666778564453,18.032593383789063)" style="fill: rgb(255, 255, 255);"></path></g><g class="path" style="transform: scale(0.91); transform-origin: 93.2233px -4.01241px 0px; animation: 1s linear -0.0825s infinite normal forwards running breath-046f8bd4-f257-4c99-93c6-2d39666f5c76;"><path d="M232.81 0.62L232.81 0.62L232.81 0.62Q226.73 0.62 226.18-4.55L226.18-4.55L226.18-4.55Q223.15 0.62 218.45 0.62L218.45 0.62L218.45 0.62Q213.76 0.62 211.28-2.04L211.28-2.04L211.28-2.04Q208.79-4.69 208.79-9.32L208.79-9.32L208.79-9.32Q208.79-17.46 212.66-22.15L212.66-22.15L212.66-22.15Q216.52-26.84 222.66-26.84L222.66-26.84L222.66-26.84Q226.18-26.84 228.11-24.70L228.11-24.70L228.11-24.70Q228.94-23.60 229.15-23.05L229.15-23.05L232.88-43.33L232.88-43.33Q230.81-43.13 229.43-41.40L229.43-41.40L228.39-42.23L228.39-42.23Q230.46-44.71 233.60-44.71L233.60-44.71L233.60-44.71Q236.74-44.71 238.46-43.13L238.46-43.13L238.46-43.13Q240.19-41.54 240.19-38.64L240.19-38.64L240.19-38.64Q240.19-38.09 240.05-36.85L240.05-36.85L240.05-36.85Q236.67-17.87 233.50-0.76L233.50-0.76L233.50-0.76Q235.57-0.97 236.95-2.69L236.95-2.69L237.98-1.86L237.98-1.86Q235.91 0.62 232.81 0.62zM216.59-6.49L216.59-6.49Q216.59-3.31 217.25-2.14L217.25-2.14L217.25-2.14Q217.90-0.97 219.32-0.97L219.32-0.97L219.32-0.97Q220.73-0.97 222.04-1.93L222.04-1.93L222.04-1.93Q223.35-2.90 224.25-4.42L224.25-4.42L224.25-4.42Q225.91-6.97 226.60-8.76L226.60-8.76L228.60-19.67L228.60-19.67Q228.46-21.87 227.15-23.70L227.15-23.70L227.15-23.70Q225.84-25.53 222.66-25.53L222.66-25.53L222.66-25.53Q220.46-25.53 218.52-19.04L218.52-19.04L218.52-19.04Q216.59-12.56 216.59-6.49L216.59-6.49" fill="#ffffff" stroke="none" stroke-width="none" transform="translate(-131.2666778564453,18.032593383789063)" style="fill: rgb(255, 255, 255);"></path></g><g class="path" style="transform: scale(0.91); transform-origin: 124.033px 4.92259px 0px; animation: 1s linear 0s infinite normal forwards running breath-046f8bd4-f257-4c99-93c6-2d39666f5c76;"><path d="M252.61 0.62L252.61 0.62Q247.30 0.62 244.54-2.04L244.54-2.04L244.54-2.04Q241.78-4.69 241.78-8.73L241.78-8.73L241.78-8.73Q241.78-12.77 242.50-15.63L242.50-15.63L242.50-15.63Q243.22-18.49 244.88-21.15L244.88-21.15L244.88-21.15Q246.54-23.81 249.88-25.32L249.88-25.32L249.88-25.32Q253.23-26.84 258.23-26.84L258.23-26.84L258.23-26.84Q263.24-26.84 266.03-24.18L266.03-24.18L266.03-24.18Q268.82-21.53 268.82-16.91L268.82-16.91L268.82-16.91Q268.82-9.04 264.65-4.21L264.65-4.21L264.65-4.21Q260.47 0.62 252.61 0.62L252.61 0.62zM249.57-6.49L249.57-6.49L249.57-6.49Q249.57-0.97 252.78-0.97L252.78-0.97L252.78-0.97Q255.99-0.97 258.51-6.52L258.51-6.52L258.51-6.52Q261.03-12.08 261.03-19.73L261.03-19.73L261.03-19.73Q261.03-25.53 257.89-25.53L257.89-25.53L257.89-25.53Q254.75-25.53 252.16-20.25L252.16-20.25L252.16-20.25Q249.57-14.97 249.57-6.49" fill="#ffffff" stroke="none" stroke-width="none" transform="translate(-131.2666778564453,18.032593383789063)" style="fill: rgb(255, 255, 255);"></path></g></g>
</g>
</g>
<style id="breath-046f8bd4-f257-4c99-93c6-2d39666f5c76" data-anikit="">@keyframes breath-046f8bd4-f257-4c99-93c6-2d39666f5c76
{
  0% {
    animation-timing-function: cubic-bezier(0.9647,0.2413,-0.0705,0.7911);
    transform: scale(0.9099999999999999);
  }
  51% {
    animation-timing-function: cubic-bezier(0.9226,0.2631,-0.0308,0.7628);
    transform: scale(1.02994);
  }
  100% {
    transform: scale(0.9099999999999999);
  }
}</style></svg>